PathFileType	4	(X/Y/Z)	Patient4_TMGait_0pt6_02_left_10.trc.trc
DataRate	CameraRate	NumFrames	NumMarkers	Units	OrigDataRate	OrigDataStartFrame	OrigNumFrames
75.268817204301	75.268817204301	5	33	mm	75.268817204301	106	       141
Frame#	Time	Sacral			L.Shoulder			Chest			R.Shoulder			Neck			R.ASIS			L.ASIS			R.Thigh.Superior			R.Thigh.Lateral			R.Thigh.Inferior			R.Patella			L.Thigh.Superior			L.Thigh.Lateral			L.Thigh.Inferior			L.Patella			L.Shank.Superior			L.Shank.Lateral			L.Shank.Inferior			R.Shank.Superior			R.Shank.Lateral			R.Shank.Inferior			R.Heel			R.Midfoot.Superior			R.Midfoot.Lateral			R.Toe			L.Heel			L.Midfoot.Lateral			L.Midfoot.Superior			L.Toe			L.Elbow			L.Wrist			R.Elbow			R.Wrist			
		X1	Y1	Z1	X2	Y2	Z2	X3	Y3	Z3	X4	Y4	Z4	X5	Y5	Z5	X6	Y6	Z6	X7	Y7	Z7	X8	Y8	Z8	X9	Y9	Z9	X10	Y10	Z10	X11	Y11	Z11	X12	Y12	Z12	X13	Y13	Z13	X14	Y14	Z14	X15	Y15	Z15	X16	Y16	Z16	X17	Y17	Z17	X18	Y18	Z18	X19	Y19	Z19	X20	Y20	Z20	X21	Y21	Z21	X22	Y22	Z22	X23	Y23	Z23	X24	Y24	Z24	X25	Y25	Z25	X26	Y26	Z26	X27	Y27	Z27	X28	Y28	Z28	X29	Y29	Z29	X30	Y30	Z30	X31	Y31	Z31	X32	Y32	Z32	X33	Y33	Z33	

106	13.605000000000	685.697685821644	1010.197412013013	492.320861088798	841.937360579190	1436.786483249952	295.852915180846	963.088211611265	1368.564644739949	443.868920898213	899.659602253778	1444.760900857330	624.682135262746	857.046824585620	1497.313838992497	445.985196661265	920.014547736584	944.918901331210	589.277102608608	885.574323582762	964.172210290997	316.684544015823	943.672592747385	736.598218503389	557.188696034741	855.783454002505	631.681678823588	617.619954407528	923.984534905570	576.226156204783	533.101597626588	916.672170581094	489.501232685126	535.652781171504	977.699809337562	801.816094106027	349.868532138846	950.143019767727	671.267975019927	269.385059890253	1058.907041200453	619.504421575049	330.361693911990	1085.330040620266	536.034594166695	320.675897393875	1039.347525237970	459.250171042001	312.939714715474	919.847073244595	373.120021291601	267.067942736477	955.530972231065	246.686309229822	318.705616066527	887.390701132169	402.120251008618	541.113973651768	814.553618937591	298.460377215479	600.177743843160	852.465376563344	204.760014982924	532.734374827540	715.796635987860	41.129959376510	497.515983983493	886.207674847620	95.757776035831	533.820139024324	798.500841068363	36.178543666911	573.193782662641	1006.802554970069	42.625340046998	563.354068704842	801.735150177021	125.694628417991	362.319442014896	866.125692192924	96.367463093915	280.427422708806	963.784749194699	136.127803908742	296.249748620980	1069.625787114699	51.579793521344	267.837314273149	709.656829359642	1106.369214626245	200.065575250374	698.853035060139	845.894423326014	184.902387230152	981.425877732214	1118.705070393423	765.948802765719	1213.090612050092	1047.418592971405	682.405923396323	
107	13.618285714286	684.497010335104	1010.602435837437	492.943333411571	841.242032283554	1437.232833089258	297.231124758347	962.841020470212	1368.125176869627	444.445619276877	900.651327714191	1444.000459583117	625.762620515688	857.107226342027	1497.199982268761	447.536561852977	918.839372119172	944.437048840724	589.099132938903	883.797809160632	964.253902974810	316.525193700592	940.372134550400	735.799863704716	556.902617257468	851.740477708819	631.523527622202	617.727974627073	919.196179311875	575.429560848492	533.165659104209	911.078720213127	488.865964933192	535.791547546203	975.075359947415	801.758250924726	349.578550123325	947.609404049896	670.955075499978	269.222325271391	1055.726928764895	619.355153316396	331.111295996260	1083.378765619452	538.230927364810	321.399645383745	1042.151552901005	461.100807089049	313.175418799475	929.934440003192	366.335979290712	266.901756809221	975.471156098773	242.714778024098	318.316168421929	881.353755302626	401.697502201209	541.147162233216	807.970765086941	298.438336593128	600.222620366718	845.271885299614	204.518765154153	532.744769776340	707.801708353148	41.211575151919	497.558606181299	878.269054984076	95.688289772409	533.900052515655	790.498602576044	36.190670483547	573.220165063506	998.809105044553	42.355736319614	563.460356020850	832.087208984327	109.028154254542	361.942820294967	898.587600482261	85.995394360716	279.607025803215	992.657033115911	133.486292187638	295.414034865385	1105.161529524183	58.336183169184	266.074167204941	706.323215826141	1107.673433968586	202.505935933495	696.702732714031	846.877622614683	188.302170392102	986.871033520265	1117.872264704939	763.466570980350	1219.298180825945	1054.365812641596	676.492997297968	
108	13.631571428571	683.371203934335	1010.827887918346	493.440162571399	840.648544093070	1437.530920263904	298.445188577170	962.604600505939	1367.558937371872	444.939388750368	901.507586755432	1443.105075004947	626.708510639165	857.171581926185	1496.958417552639	448.924463857369	917.757932738603	943.877854794555	588.833963542061	882.136219249306	964.147202042753	316.263722486529	937.332182433208	734.973649763301	556.615092654948	847.953812264775	631.289244675769	617.754054362287	914.700395060795	574.604146901256	533.176443193519	905.784196069490	488.162388761091	535.854187003051	972.202315017913	800.989823212468	349.035042149700	944.371139728102	670.004943775554	268.854876379014	1051.726898717966	618.309637729305	331.756530619160	1080.488578375935	539.757376857312	322.102092001362	1044.052248763437	462.667570442547	313.435239393347	939.843416413223	359.753659459661	266.541940950487	994.841715947201	239.698017226581	318.043375669443	875.551539701212	401.197329160230	541.103141266734	801.576365001946	298.383976383790	600.209321925622	838.189930434531	204.235817836492	532.704464988077	699.809600290249	41.297656465117	497.589920606271	870.353390408268	95.625903082227	533.968299423649	782.498189007619	36.200419729008	573.225950442847	990.825002137695	42.088199202334	563.560340073229	862.617901826988	94.323926770262	361.366832752774	931.036456905019	77.371099143952	278.979496410354	1020.916326835403	132.236439266869	294.991665641277	1139.339706286982	66.686058956554	265.512691407116	703.452469475727	1108.715017167372	204.669014495475	695.434292683090	847.574484818639	191.425524367623	991.920652681020	1116.861380946088	760.740802708913	1224.747038444373	1060.600587355287	670.537437287879	
109	13.644857142857	682.335155339804	1010.873027726995	493.818087938570	840.138884864982	1437.684503446788	299.473397384591	962.365758070596	1366.892341811341	445.336023390942	902.202097427320	1442.113316091889	627.502738529551	857.226961397971	1496.607304786336	450.118842219881	916.792158784387	943.262291229715	588.490564994011	880.603296503272	963.879031185589	315.913978833583	934.570925472501	734.123167350805	556.314592583031	844.434853372843	630.981920163557	617.691063699700	910.495999963385	573.754094141805	533.116575417845	900.785901377099	487.389445992560	535.823417304956	969.168951908314	799.623108209770	348.279411714320	940.569238812050	668.523016947839	268.312326447657	1047.134486557832	616.541452913524	332.246466408982	1076.890121551892	540.711717116697	322.779360265637	1045.168242955885	464.003258339829	313.729320188234	949.435740681226	353.616679946015	266.047343229852	1013.269168365292	237.745992575615	317.922604329610	869.980693206177	400.621973810861	540.973980338308	795.367952719904	298.302249814575	600.134595597654	831.216264892029	203.916133450286	532.610610568972	691.817654519594	41.391324021319	497.613870863966	862.457092566825	95.571218416229	534.022609494879	774.498016310423	36.208548803889	573.209874726818	982.849274392867	41.829916451704	563.653151088604	892.584367250016	81.916852022832	360.665067098181	962.748881548426	70.680085542415	278.600061387121	1047.986813965106	132.420140133226	295.007434738270	1171.517333225570	76.423758368808	266.151546508115	701.081949366243	1109.470174643981	206.514488428549	695.038536820494	847.975683252121	194.238803327177	996.540765176398	1115.708663048766	757.794701163178	1229.453168415255	1066.097486728809	664.563858841326	
110	13.658142857143	681.404079799245	1010.746586999604	494.080353524988	839.688303876001	1437.700239258277	300.296734825249	962.112046606374	1366.156500606128	445.619012481994	902.719507839954	1441.068733517230	628.127926125654	857.256975921423	1496.168128063205	451.092249657493	915.960404387961	942.609042838826	588.078217423944	879.216446544994	963.482972844600	315.490155492599	932.089684648411	733.250391194433	555.983600450439	841.181073187441	630.608196156615	617.534337142762	906.566021623863	572.883097637665	532.969903400657	896.065433619489	486.549728804917	535.686701061876	966.087287039120	797.803183835214	347.354534438504	936.379229493748	666.636126711067	267.643540553630	1042.213631164555	614.252584421077	332.527892391633	1072.836209645940	541.196408697157	323.415486791386	1045.632250902383	465.139687905749	314.051247485716	958.509454019256	348.106207531815	265.510592935125	1030.368109845357	236.841226996375	317.975695282165	864.626496995565	399.977534980734	540.756101224655	789.332523560373	298.200720847488	599.997902384464	824.341304639928	203.567275484465	532.463515886992	683.824423321318	41.497102049022	497.633356594504	854.576079177480	95.524278709132	534.060782872135	766.496903496237	36.216704209744	573.171530170319	974.879827314884	41.586681682252	563.737767537150	921.187997179898	71.941202162520	359.965885245407	992.917468422895	65.923128632823	278.523081954404	1073.266393056755	133.912429536894	295.441419681371	1201.063461194281	87.151110460334	267.834552062734	699.234801164714	1109.921290678453	208.007032016213	695.503332706138	848.079872124653	196.707494530417	1000.690545949228	1114.453228102818	754.657830477343	1233.426626431356	1070.842719127895	658.596392944094	
